<?xml version="1.0" encoding="utf-8"?>
<!-- Generator: Adobe Illustrator 25.2.3, SVG Export Plug-In . SVG Version: 6.00 Build 0)  -->
<svg version="1.1" id="图层_1" xmlns="http://www.w3.org/2000/svg" xmlns:xlink="http://www.w3.org/1999/xlink" x="0px" y="0px"
	 viewBox="0 0 1024 1024" enable-background="new 0 0 1024 1024" xml:space="preserve">
<g opacity="0.89">
	<path fill="#FFFF00" stroke="#001935" stroke-width="5" stroke-linecap="round" stroke-miterlimit="10" d="M515.9,17.1L174.5,607.7
		l684.9-0.7L515.9,17.1z"/>
	<path fill="#00C0FF" stroke="#001935" stroke-width="5" stroke-linecap="round" stroke-miterlimit="10" d="M602.4,360.1l-86-343
		l-84.1,342.5L174.5,607.7l342.9-99.3l341.5,99.1L602.4,360.1z"/>
	<path fill="#6F99FF" stroke="#001935" stroke-width="5" stroke-linecap="round" stroke-miterlimit="10" d="M112.1,465.5l808,0
		L800.4,310.7L518.2,606.8l-285.4-297L112.1,465.5z"/>
	<path fill="#FFFF00" stroke="#001935" stroke-width="5" stroke-linecap="round" stroke-miterlimit="10" d="M518.2,806.7
		L175.5,211.8l680.4,1.6L518.2,806.7z"/>
	<path fill="#6F99FF" stroke="#001935" stroke-width="5" stroke-linecap="round" stroke-miterlimit="10" d="M602.9,458.5
		l-84.1,347.7l-86.3-348L176.1,211.3l341.2,99.3L856,213.4L602.9,458.5z"/>
	<path fill="#FF4000" stroke="#001935" stroke-width="5" stroke-linecap="round" stroke-miterlimit="10" d="M516.3,163.5
		L174.5,607.7l684.9-0.7L516.3,163.5z"/>
	<path fill="#FFFF00" stroke="#001935" stroke-width="5" stroke-linecap="round" stroke-miterlimit="10" d="M264.1,369.2l-31.6,24.2
		l-40.5-31.1l-10,12.3l50.1,38.6l41.6-31.6L264.1,369.2z"/>
	<path fill="#FFFF00" stroke="#001935" stroke-width="5" stroke-linecap="round" stroke-miterlimit="10" d="M768.9,369.8l31.5,24.1
		l39.8-30.9l9.6,12.4l-49.1,38.3l-41-31.6L768.9,369.8z"/>
	<path fill="#FFAA00" stroke="#001935" stroke-width="5" stroke-linecap="round" stroke-miterlimit="10" d="M516.3,163.5l119.3,154
		L517,408.8l-119.2-92L516.3,163.5z"/>
	<path fill="none" stroke="#001935" stroke-width="5" stroke-linecap="round" stroke-miterlimit="10" d="M232.2,310.4l285.4,297"/>
	<path fill="none" stroke="#001935" stroke-width="5" stroke-linecap="round" stroke-miterlimit="10" d="M517.6,607.4l282.3-296.2"
		/>
	<path fill="none" stroke="#001935" stroke-width="5" stroke-linecap="round" stroke-miterlimit="10" d="M409.9,301.8l107.4,82.8"/>
	<path fill="none" stroke="#001935" stroke-width="5" stroke-linecap="round" stroke-miterlimit="10" d="M517.2,384.1l106.5-82.4"/>
	<path fill="#FF4000" stroke="#001935" stroke-width="5" stroke-linejoin="round" d="M600.3,119.1c-7.9,17.3-20.1,32-35.3,42.7
		c10.5-66.4-19-97.2-70.6-114.7c-21.7-7.4,17,21.2,13.8,59.5c-1.8,20.9-31.7,36.8-44.9,57.9c2.2-3.6-11.7-16.3-13.8-29.9
		c-1.1-14.2,2.1-28.4,9.1-40.7c-36.3,17.1-75.4,51.7-71.1,99.7c6.3,58.8,71.6,114.1,131.3,104c75.5-0.8,133.6-87.4,118.6-157.2
		c-6-28.1-21.2-53.1-43.1-70.7C598.6,86.7,607.5,98,600.3,119.1L600.3,119.1z"/>
	<path fill="#FFFF00" stroke="#001935" stroke-width="5" stroke-linejoin="round" d="M570.5,200.3c-4.7,10-12.2,18.3-21.4,23.9
		c5.2-38.5-6.6-49.2-41.2-64.1c6.4,10.6,9.2,23.1,8.2,35.6c-2.8,10.5-21.4,16.7-26.8,29.8c2-4.8-6.5-6.9-9.2-18.6
		c-0.4-6.8,1.3-13.6,4.7-19.5c4.5-10-20.6,9.2-28.9,18.7c-22.3,22.8-11,57.3,14.6,75c69.1,53.1,169.9-42.8,96.3-106.1
		C571.2,182.5,572.5,191.6,570.5,200.3z"/>
	<path fill="#FFFF00" stroke="#001935" stroke-width="4.6" stroke-miterlimit="10" d="M623.7,301.8l-107.3,80.9l-106.5-80.8
		l-12.1,14.9l118.3,92.3l119.5-91.6L623.7,301.8z"/>
</g>
<path fill="#FF0000" stroke="#551000" stroke-miterlimit="10" d="M209.5,708c10-9.1,18.5-19.7,25.2-31.5c12.4,9.7,24.8,19.3,15.8,21
	c-2.9,0.4-5.9-1-8.4,1c-4.7,2.1-9.3,4.5-13.6,7.3c-8.4,4.2-14.7,7.3-17.9,9.5c0.1,13.7-1,27.4-3.1,41c25.2,8.4,37.8,16.8,37.8,27.3
	c1,11.2-12.9,27.1-16.8,7.3c-4.1-11.9-11.4-22.4-21-30.5c-4.2,25.2-22.1,49.3-51.4,72.5l-2.1-3.2c11.7-11.9,21.3-25.8,28.4-41
	c16.8-41.9,12.6-105.6,11.6-149.1c14.6,4.5,23.1,5.3,29.4,11.5c0.4,2.4-7.5,4.4-7.4,6.3c-1,1-1,4.2-1,8.4L209.5,708z M306.1,669.1
	v137.5c0.1,3.7-1,7.4-3.1,10.5c-8.1,6.4-17.4,11-27.3,13.7c-1.1,0-2.1-1-3.1-4.2c-0.1-2.8-1.2-5.4-3.2-7.3
	c-6-7.2-14.5-8.7-26.2-13.7l1.1-4.2c17.1,2.9,43.5,10.3,43-5.2V668.1c-16.8-0.6-33.6-0.2-50.4,1l-4.2-9.5c4.7,2.3,75.1,0.5,81.9,1
	l8.4-12.6c4.2-6.9,6.7-1.3,15.8,5.2c7,7.4,14.4,13,5.2,13.7L306.1,669.1z M176.9,684.9c2.7,18.6,7.5,40.4-4.2,51.5
	c-4.7,5.6-12.7,6.9-18.9,3.2c-3.4-4.7-2.5-11.2,2.1-14.7c5-4.5,8.6-10.4,10.5-16.8c2.3-7.9,3.7-16,4.2-24.2L176.9,684.9z"/>
<path fill="#FF0000" stroke="#551000" stroke-miterlimit="10" d="M179.7,952.9v-2.8c2.4-0.2,3.7-0.3,4-0.3c4.9-0.1,7.4-1.5,7.4-4.3
	c-1.5-5.3-4-10.2-7.5-14.4l-14-20.6l-17.5,21.8c-3.5,3.5-6.2,7.9-7.6,12.6c-0.1,1.6,0.9,3,2.4,3.6c2.8,1,5.8,1.5,8.8,1.5v2.8h-34.3
	v-2.8c3-0.1,6-1,8.5-2.7c4.6-4.4,8.9-9.1,12.8-14l23.1-28.4l-16-23.5c-4.4-6.8-9.5-13.2-15.1-19.1c-3.3-2.6-7.3-4.1-11.5-4v-2.8
	h44.4v2.8l-4.1,0.1c-4.7,0.1-7.1,1.5-7.1,4.3c2.6,8.1,6.9,15.6,12.5,22.1l6.2,8.7l16.6-20.3c2.8-2.8,4.8-6.3,5.9-10.2
	c0.1-1.5-0.8-2.9-2.1-3.5c-2.6-0.8-5.4-1.3-8.2-1.3v-2.8h35v2.8c-3.8,0-7.5,1-10.9,2.9c-4.1,3.1-7.9,6.8-11,11l-21.5,26.8l28.2,40.3
	c2.1,3.1,4.6,5.9,7.6,8.2c2.7,1.5,5.7,2.4,8.8,2.6v2.8L179.7,952.9z"/>
<path fill="#FF0000" stroke="#551000" stroke-miterlimit="10" d="M270.1,954.4l-0.6-0.4v-9.4c-4.2,6.3-11.3,10-18.8,9.9
	c-7.6,0.3-14.8-3-19.7-8.7c-5.2-6.4-7.9-14.6-7.5-22.9c-0.3-9.6,2.9-19,9-26.5c5.1-6.9,13.1-10.9,21.6-11c5.7,0.2,11.2,2.4,15.4,6.3
	v-22.9c0.2-2.1-0.2-4.2-1.3-6c-1.5-1.2-3.5-1.7-5.4-1.5c-1.1,0-2.2,0-3.2,0.1v-2.4c8.9-2.3,16.1-4.5,21.6-6.5l0.7,0.3v83.4
	c-0.2,2.3,0.2,4.7,1.2,6.8c1.4,1.3,3.3,1.9,5.2,1.6c0.5,0,1.6,0,3.4-0.1v2.4L270.1,954.4z M269.5,904.1c0-3.9-1.7-7.7-4.6-10.3
	c-2.7-2.8-6.5-4.4-10.4-4.4c-5.5-0.1-10.6,2.8-13.4,7.5c-3.6,6-5.3,13-5,20c-0.4,7.6,1.6,15.2,5.6,21.7c3.1,5.1,8.7,8.2,14.7,8.2
	c4,0.2,7.9-1.5,10.6-4.4c1.3-1.2,2.2-2.7,2.5-4.4V904.1z"/>
<path fill="#FF0000" stroke="#551000" stroke-miterlimit="10" d="M295.3,952.9v-2.2c3.4,0.2,6.8-0.7,9.6-2.6c1.7-3.1,2.4-6.6,2-10.2
	v-34.1c0.2-2.3-0.2-4.7-1.1-6.8c-0.8-1.3-2.2-2.1-3.7-2c-1.7,0-3.4,0.2-5,0.4l-1.2,0.1v-2.2l22.8-8.1l0.6,0.4v52.2
	c-0.4,3.5,0.2,7,1.8,10.1c2.6,1.9,5.8,2.9,9,2.7v2.2L295.3,952.9z M318.5,871.5c-1.4,1.4-3.4,2.2-5.4,2.1c-2,0-3.9-0.7-5.3-2.1
	c-2.9-2.9-2.9-7.7,0-10.7c2.9-2.9,7.7-2.9,10.7,0l0,0C321.2,863.8,321.1,868.4,318.5,871.5L318.5,871.5z"/>
<path fill="#FF0000" stroke="#551000" stroke-miterlimit="10" d="M379.4,950.5c-5.7,3.2-12.2,4.8-18.8,4.5
	c-6.3,0.3-12.6-1.3-18.1-4.5c-4.4-2.5-7.1-7.2-7-12.3c-0.2-3.7,1.2-7.3,3.8-9.8c3.8-3.5,8.3-6.3,13.2-8c-4.8-2.9-9.2-6.2-13.3-10
	c-1.9-2.2-3-5.1-2.9-8.1c0.2-4.7,2.9-8.9,7.1-11c5.4-3.1,11.6-4.6,17.8-4.4c5.6-0.3,11.3,1.1,16.2,3.9c3.8,1.8,6.3,5.7,6.3,9.9
	c0.1,3.3-1.4,6.4-3.9,8.4c-4.1,3.2-8.7,5.7-13.6,7.4c6,2.1,11.5,5.5,16,10c2.7,3.4,4.2,7.6,4.3,12
	C386.5,943.5,383.8,948.1,379.4,950.5z M373.6,934.4c-2.4-3.9-6-7-10.3-8.9l-7.3-3.3c-3.3,0.9-6.2,3-8.1,5.9c-1.7,3-2.4,6.5-2.1,10
	c-0.1,3.7,1.5,7.2,4.3,9.6c3.3,2.9,7.6,4.5,12,4.5c3.7,0.1,7.3-0.9,10.4-3c2.4-1.8,3.8-4.7,3.6-7.7C375.9,939,375,936.5,373.6,934.4
	z M370.7,892.6c-3.1-2.1-6.8-3.2-10.6-3c-3.6-0.1-7.1,0.8-10.1,2.7c-2.4,1.4-3.9,4.1-4,6.9c0.2,3,1.5,5.7,3.8,7.7
	c3.8,3.2,8,5.9,12.6,7.9c0.4-0.2,0.8-0.4,1.2-0.6c7.4-3.6,11.1-8.2,11.1-13.6C374.8,897.4,373.3,894.4,370.7,892.6z"/>
<path fill="#FF0000" stroke="#551000" stroke-miterlimit="10" d="M716.3,919.9h-37.7l-6.6,15.4c-1.3,2.7-2.1,5.5-2.4,8.5
	c0,1.6,0.8,3,2.1,3.9c2.8,1.5,6,2.3,9.2,2.2v2.7h-30.6v-2.7c2.8-0.2,5.5-1.2,7.9-2.8c3.5-4.1,6.3-8.9,8.1-14l34.2-80.1h2.5l33.9,81
	c1.6,4.7,4.1,9,7.4,12.7c2.6,2.1,5.9,3.3,9.3,3.3v2.7h-38.4v-2.7c2.8,0.1,5.5-0.6,7.9-1.9c1.3-0.9,2-2.4,2-4
	c-0.4-3.5-1.3-6.8-2.9-10L716.3,919.9z M714.3,914.6l-16.5-39.3l-16.9,39.3H714.3z"/>
<path fill="#FF0000" stroke="#551000" stroke-miterlimit="10" d="M795.7,952.5v-2.2c3,0.1,5.9-1,8.2-2.9c1.5-3,2.2-6.5,1.8-9.9
	v-29.1c0-10.4-3.7-15.6-11-15.6c-2.8,0-5.6,0.7-8,2.1c-3.1,1.9-5.9,4.4-8.3,7.1v35.4c-0.4,3.4,0.2,6.8,1.8,9.9
	c2.3,1.9,5.2,3,8.2,2.9v2.2h-31.8v-2.2c2.9,0,5.7-1.1,7.9-2.9c1.4-3.1,1.9-6.5,1.5-9.9v-69.3c1.1-3.1-0.6-6.4-3.6-7.5
	c-1.3-0.4-2.6-0.4-3.9,0c-0.6,0-1.2,0-1.8,0.2v-2.4l4-1.2c6.7-1.9,12.3-3.6,16.9-5.3l0.7,0.4v44.7c2.7-3.8,6.2-7,10.2-9.5
	c3.5-2,7.5-3,11.5-2.9c12.1,0,18.1,7.8,18.1,23.4v29.3c-0.3,3.3,0.2,6.6,1.4,9.6c2,1.9,4.7,3,7.4,3.2v2.2L795.7,952.5z"/>
<path fill="#FF0000" stroke="#551000" stroke-miterlimit="10" d="M888.4,943.6c-11.7,12.9-31.7,13.8-44.5,2.1
	c-0.6-0.5-1.2-1.1-1.7-1.7c-12.2-14.3-12.3-35.2-0.1-49.6c12.9-12.8,33.7-12.8,46.7-0.2c6.1,6.4,9.4,15,9.1,23.8
	C898.1,927.5,894.8,936.7,888.4,943.6z M878.7,898.5c-2.9-5.7-8.7-9.4-15.1-9.6c-5-0.1-9.7,2.3-12.6,6.3c-3.4,4.9-5.1,10.8-4.8,16.8
	c-0.2,9.9,2,19.6,6.5,28.4c2.5,5.7,8.1,9.4,14.3,9.4c5.3,0.1,10.2-2.6,13-7.1c3.4-5.9,5.1-12.7,4.7-19.6
	C885,914.6,882.9,906,878.7,898.5z"/>
<path fill="#FF0000" stroke="#551000" stroke-miterlimit="10" d="M720.9,724.5c-6.4,1.1-12.7,2.9-18.8,5.3c-3.4,1.1-6.6,2.9-9.4,5.3
	c-0.9,1.1-0.9,1.1-1.9,1.1c-4.4-0.4-3.5-3-7.5-9.4c-0.9-3.3-2.2-6.4-3.8-9.4c4.8-0.9,9.1-3.5,12.2-7.4c9.2-21.4,16.7-43.6,22.4-66.2
	c8.1,3,15.7,7.2,22.6,12.5c0,1-0.9,1.1-2.8,2.1c-4.8,0.9-4.3,3.6-7.5,8.4c-8.4,15.8-17.2,32.6-28.5,51.5l25.8-0.1l14-31.5
	c5,3.1,9.4,7,13.2,11.5c4.5,4,8.8,7.3,2.8,7.3c-5.3,0.8-5.7,3.4-9.4,8.4c-9.4,14.7-20.6,32.6-35.6,52.6l40.4-4.3l1,4.2
	c-16.9,5.3-29.1,9.5-36.6,11.6c-5.1,1.7-9.8,4.1-14.1,7.4c-0.9,1.2-2.3,1.9-3.8,2.1c-0.9,0-0.9,0-1.9-1c-2.9-6.1-5.4-12.4-7.6-18.9
	c7-2,13.2-6,17.8-11.6c1.9-3.2,4.7-7.4,8.4-13.7C715.3,736,718.1,729.7,720.9,724.5L720.9,724.5z"/>
<path fill="#FF0000" stroke="#551000" stroke-miterlimit="10" d="M753.7,793.8l-39.4,18.9c-4.2,1.9-8.3,4-12.2,6.3
	c-2.6,2.1-5.4,3.8-8.5,5.2c-0.5,0.6-1.1,1-1.9,1c-3.7-6.4-6.9-13-9.4-20c24.9-3.5,49.4-9.5,73.1-17.8L753.7,793.8z"/>
<path fill="#FF0000" stroke="#551000" stroke-miterlimit="10" d="M816,735.1c12.5-15.1,23-31.7,31.3-49.4
	c8.7,4.1,16.9,9.1,24.7,14.7c0,1-1.2,1-3.7,1c-2.6,0.2-5.1,0.9-7.4,2.1c-15.8,10-27,20.5-44.4,33.6c8.6,39.9,29.6,66.2,60.5,77.7
	l-1.2,4.2c-10.3-3.2-21.5-0.8-29.6,6.3c-7.4,6.1-9.5-1.9-16.9-11.5c-16-27.7-23.8-59.4-22.6-91.4c-10.5,65.7-20.8,83.4-80.2,112.3
	l-2.5-3.2c34.3-20.6,52.5-43.5,60.2-82.1c7.8-36.5,9.8-74,6.2-111.1c17.6,3.6,41.3,6.3,28.7,12.6c-5.9,2.9-5.6,3.1-7.4,10.5
	l-2.5,33.6c-0.2,3.7,0.1,7.3,0.8,10.9c1.1,11.3,4.1,19.5,5.3,26.8L816,735.1z"/>
<path fill="#FF0000" stroke="#551000" stroke-miterlimit="10" d="M771.3,693c3.6,10.8,4.7,22.3,3.2,33.6c0.2,5.9-2,11.6-6.2,15.8
	c-5,4.5-17.8,9-21,1c1.5-3.8,3.6-7.3,6.2-10.5c7.5-12.1,12.1-25.7,13.6-39.9L771.3,693z"/>
<g>
</g>
<g>
</g>
<g>
</g>
<g>
</g>
<g>
</g>
<g>
</g>
<g>
</g>
<g>
</g>
<g>
</g>
<g>
</g>
<g>
</g>
<g>
</g>
<g>
</g>
<g>
</g>
<g>
</g>
</svg>
